<svg width="16" height="16" viewBox="0 0 16 16" fill="none" xmlns="http://www.w3.org/2000/svg">
<path fill-rule="evenodd" clip-rule="evenodd" d="M1.74219 8.05225C1.74219 4.537 4.60194 1.67725 8.11719 1.67725C11.6324 1.67725 14.4922 4.537 14.4922 8.05225C14.4922 11.5675 11.6324 14.4272 8.11719 14.4272C4.60194 14.4272 1.74219 11.5675 1.74219 8.05225ZM0.617188 8.05225C0.617188 12.1877 3.98169 15.5522 8.11719 15.5522C12.2527 15.5522 15.6172 12.1877 15.6172 8.05225C15.6172 3.91675 12.2527 0.552246 8.11719 0.552246C3.98169 0.552246 0.617188 3.91675 0.617188 8.05225ZM10.4025 10.7428C10.4933 10.7961 10.5923 10.8216 10.6905 10.8216C10.8818 10.8216 11.0685 10.7233 11.1743 10.5471C11.3333 10.2801 11.2455 9.93509 10.9793 9.77534L8.42554 8.25284V4.93634C8.42554 4.62584 8.17429 4.37384 7.86304 4.37384C7.55254 4.37384 7.30054 4.62584 7.30054 4.93634V8.57234C7.30054 8.77034 7.40554 8.95409 7.57504 9.05609L10.4025 10.7428Z" fill="#23CE6B"/>
</svg>
