<svg width="186" height="61" viewBox="0 0 186 61" fill="none" xmlns="http://www.w3.org/2000/svg">
<path fill-rule="evenodd" clip-rule="evenodd" d="M178.357 1.10581H7.6919C3.98675 1.10581 0.983128 4.10943 0.983128 7.81458V52.7198C0.983128 56.425 3.98675 59.4286 7.6919 59.4286H178.357C182.062 59.4286 185.065 56.425 185.065 52.7198V7.81458C185.065 4.10943 182.062 1.10581 178.357 1.10581ZM7.6919 0.267212C3.5236 0.267212 0.144531 3.64629 0.144531 7.81458V52.7198C0.144531 56.8881 3.5236 60.2672 7.6919 60.2672H178.357C182.525 60.2672 185.904 56.8881 185.904 52.7198V7.81458C185.904 3.64628 182.525 0.267212 178.357 0.267212H7.6919Z" fill="#6E80A3"/>
<path d="M73.9453 46.0507L79.6209 31.761H82.8009L88.4966 46.0507H85.4173L84.25 42.911H78.0712L76.9039 46.0507H73.9453ZM79.0171 40.3751H83.304L81.1505 34.6793L79.0171 40.3751Z" fill="#233375"/>
<path d="M89.5408 49.9552V35.424H92.1371L92.2176 36.9737C92.5799 36.3968 93.063 35.9473 93.6667 35.6253C94.2705 35.2898 94.9347 35.1221 95.6592 35.1221C96.357 35.1221 97.001 35.263 97.5914 35.5447C98.1817 35.8265 98.6983 36.2223 99.1411 36.7322C99.5839 37.2287 99.926 37.8123 100.168 38.4832C100.422 39.1541 100.55 39.8853 100.55 40.677C100.55 41.482 100.422 42.2267 100.168 42.911C99.9126 43.5953 99.557 44.1991 99.1008 44.7224C98.6447 45.2322 98.108 45.6347 97.4907 45.9299C96.8735 46.2117 96.2094 46.3526 95.4982 46.3526C94.8408 46.3526 94.2437 46.2251 93.707 45.9702C93.1703 45.7018 92.7208 45.3328 92.3585 44.8632V49.9552H89.5408ZM94.9951 43.8167C95.5049 43.8167 95.9611 43.6825 96.3637 43.4141C96.7662 43.1458 97.0815 42.7835 97.3096 42.3273C97.5511 41.8577 97.6719 41.3277 97.6719 40.7373C97.6719 40.147 97.5511 39.6237 97.3096 39.1675C97.0815 38.6979 96.7662 38.3289 96.3637 38.0605C95.9611 37.7922 95.5049 37.658 94.9951 37.658C94.4852 37.658 94.029 37.7922 93.6265 38.0605C93.224 38.3289 92.9019 38.6979 92.6604 39.1675C92.4323 39.6237 92.3183 40.147 92.3183 40.7373C92.3183 41.3277 92.4323 41.8577 92.6604 42.3273C92.9019 42.7835 93.224 43.1458 93.6265 43.4141C94.029 43.6825 94.4852 43.8167 94.9951 43.8167Z" fill="#233375"/>
<path d="M101.992 49.9552V35.424H104.589L104.669 36.9737C105.032 36.3968 105.515 35.9473 106.118 35.6253C106.722 35.2898 107.386 35.1221 108.111 35.1221C108.809 35.1221 109.453 35.263 110.043 35.5447C110.633 35.8265 111.15 36.2223 111.593 36.7322C112.035 37.2287 112.378 37.8123 112.619 38.4832C112.874 39.1541 113.002 39.8853 113.002 40.677C113.002 41.482 112.874 42.2267 112.619 42.911C112.364 43.5953 112.009 44.1991 111.552 44.7224C111.096 45.2322 110.56 45.6347 109.942 45.9299C109.325 46.2117 108.661 46.3526 107.95 46.3526C107.292 46.3526 106.695 46.2251 106.159 45.9702C105.622 45.7018 105.172 45.3328 104.81 44.8632V49.9552H101.992ZM107.447 43.8167C107.957 43.8167 108.413 43.6825 108.815 43.4141C109.218 43.1458 109.533 42.7835 109.761 42.3273C110.003 41.8577 110.123 41.3277 110.123 40.7373C110.123 40.147 110.003 39.6237 109.761 39.1675C109.533 38.6979 109.218 38.3289 108.815 38.0605C108.413 37.7922 107.957 37.658 107.447 37.658C106.937 37.658 106.481 37.7922 106.078 38.0605C105.676 38.3289 105.354 38.6979 105.112 39.1675C104.884 39.6237 104.77 40.147 104.77 40.7373C104.77 41.3277 104.884 41.8577 105.112 42.3273C105.354 42.7835 105.676 43.1458 106.078 43.4141C106.481 43.6825 106.937 43.8167 107.447 43.8167Z" fill="#233375"/>
<path d="M122.836 46.3526C121.978 46.3526 121.186 46.205 120.461 45.9098C119.75 45.6012 119.14 45.1718 118.63 44.6217C118.134 44.0582 117.791 43.3873 117.604 42.6091L120.401 42.0053C120.576 42.5554 120.877 42.9848 121.307 43.2934C121.75 43.602 122.273 43.7563 122.877 43.7563C123.306 43.7563 123.682 43.6825 124.004 43.5349C124.339 43.3739 124.594 43.1592 124.769 42.8909C124.956 42.6225 125.05 42.3139 125.05 41.965C125.05 41.5223 124.883 41.1667 124.547 40.8983C124.212 40.6166 123.668 40.3885 122.917 40.2141L122.273 40.0732C120.797 39.7511 119.71 39.2346 119.012 38.5234C118.315 37.7989 117.966 36.92 117.966 35.8869C117.966 35.2429 118.093 34.6525 118.348 34.1158C118.603 33.5791 118.952 33.1162 119.395 32.7271C119.851 32.3245 120.381 32.0159 120.985 31.8013C121.589 31.5732 122.239 31.4591 122.937 31.4591C123.729 31.4591 124.467 31.6067 125.151 31.9019C125.835 32.1971 126.412 32.6197 126.882 33.1698C127.351 33.72 127.667 34.3707 127.828 35.1221L125.07 35.7259C124.909 35.1892 124.628 34.7799 124.225 34.4982C123.836 34.203 123.38 34.0554 122.857 34.0554C122.494 34.0554 122.166 34.1292 121.87 34.2768C121.589 34.411 121.36 34.6055 121.186 34.8605C121.025 35.102 120.945 35.377 120.945 35.6856C120.945 36.1552 121.126 36.5175 121.488 36.7725C121.85 37.014 122.387 37.2152 123.098 37.3762L123.742 37.5171C125.205 37.8391 126.285 38.349 126.982 39.0467C127.694 39.7444 128.049 40.6367 128.049 41.7235C128.049 42.4078 127.915 43.0317 127.647 43.5953C127.392 44.1588 127.029 44.6486 126.56 45.0645C126.09 45.4804 125.54 45.8025 124.909 46.0306C124.279 46.2452 123.588 46.3526 122.836 46.3526Z" fill="#233375"/>
<path d="M133.873 46.3526C133.135 46.3526 132.498 46.2117 131.961 45.9299C131.438 45.6347 131.029 45.2121 130.734 44.662C130.452 44.1119 130.311 43.441 130.311 42.6493V37.6983H128.5V35.424H130.311V31.8013H133.129V35.424H136.027V37.6983H133.129V42.3072C133.129 42.8171 133.236 43.2129 133.451 43.4946C133.665 43.763 133.994 43.8972 134.437 43.8972C134.665 43.8972 134.906 43.8636 135.161 43.7965C135.43 43.7295 135.685 43.6422 135.926 43.5349L136.429 45.6482C136.08 45.8628 135.691 46.0306 135.262 46.1513C134.833 46.2855 134.37 46.3526 133.873 46.3526Z" fill="#233375"/>
<path d="M142.602 46.3526C141.811 46.3526 141.079 46.2117 140.409 45.9299C139.738 45.6482 139.154 45.2591 138.658 44.7626C138.161 44.2527 137.772 43.6557 137.49 42.9714C137.222 42.2871 137.088 41.5424 137.088 40.7373C137.088 39.9323 137.229 39.1943 137.51 38.5234C137.792 37.8391 138.181 37.2421 138.678 36.7322C139.188 36.2223 139.778 35.8265 140.449 35.5447C141.133 35.263 141.878 35.1221 142.683 35.1221C143.474 35.1221 144.206 35.263 144.877 35.5447C145.547 35.8265 146.131 36.2223 146.628 36.7322C147.124 37.2287 147.506 37.819 147.775 38.5033C148.057 39.1742 148.197 39.9122 148.197 40.7172C148.197 41.5223 148.057 42.2669 147.775 42.9512C147.493 43.6355 147.097 44.2326 146.587 44.7425C146.091 45.2523 145.5 45.6482 144.816 45.9299C144.145 46.2117 143.407 46.3526 142.602 46.3526ZM142.643 43.8167C143.152 43.8167 143.609 43.6825 144.011 43.4141C144.414 43.1458 144.729 42.7835 144.957 42.3273C145.199 41.8577 145.319 41.3277 145.319 40.7373C145.319 40.147 145.199 39.6237 144.957 39.1675C144.729 38.6979 144.414 38.3289 144.011 38.0605C143.609 37.7922 143.152 37.658 142.643 37.658C142.133 37.658 141.676 37.7922 141.274 38.0605C140.871 38.3289 140.549 38.6979 140.308 39.1675C140.08 39.6237 139.966 40.147 139.966 40.7373C139.966 41.3277 140.08 41.8577 140.308 42.3273C140.549 42.7835 140.871 43.1458 141.274 43.4141C141.676 43.6825 142.133 43.8167 142.643 43.8167Z" fill="#233375"/>
<path d="M149.647 46.0507V35.424H152.243L152.344 37.0341C152.612 36.4706 152.975 36.0412 153.431 35.746C153.887 35.4374 154.424 35.2831 155.041 35.2831C155.229 35.2831 155.417 35.3032 155.604 35.3435C155.792 35.3703 155.96 35.4106 156.108 35.4642L155.806 38.2417C155.658 38.188 155.504 38.1545 155.343 38.141C155.195 38.1142 155.041 38.1008 154.88 38.1008C154.102 38.1008 153.505 38.3423 153.089 38.8253C152.673 39.295 152.465 39.9658 152.465 40.838V46.0507H149.647Z" fill="#233375"/>
<path d="M162 46.3526C161.209 46.3526 160.477 46.2184 159.807 45.9501C159.149 45.6683 158.579 45.2792 158.096 44.7827C157.613 44.2729 157.237 43.6758 156.969 42.9915C156.7 42.2938 156.566 41.5357 156.566 40.7172C156.566 39.9256 156.7 39.1876 156.969 38.5033C157.237 37.819 157.606 37.2287 158.076 36.7322C158.559 36.2223 159.122 35.8265 159.766 35.5447C160.41 35.263 161.108 35.1221 161.859 35.1221C162.638 35.1221 163.342 35.2563 163.973 35.5246C164.617 35.793 165.167 36.1754 165.623 36.6718C166.079 37.1683 166.428 37.7586 166.67 38.4429C166.925 39.1272 167.052 39.892 167.052 40.7373V41.4418H159.424C159.545 42.2334 159.833 42.8573 160.29 43.3135C160.746 43.7563 161.323 43.9777 162.02 43.9777C162.503 43.9777 162.94 43.8636 163.329 43.6355C163.731 43.4074 164.06 43.0787 164.315 42.6493L166.831 43.4544C166.589 44.0582 166.227 44.5748 165.744 45.0041C165.261 45.4335 164.697 45.7689 164.053 46.0104C163.409 46.2385 162.725 46.3526 162 46.3526ZM161.859 37.2957C161.242 37.2957 160.719 37.497 160.29 37.8995C159.874 38.3021 159.599 38.8522 159.464 39.5499H164.154C164.046 38.8522 163.785 38.3021 163.369 37.8995C162.966 37.497 162.463 37.2957 161.859 37.2957Z" fill="#233375"/>
<path d="M74.4727 23.4086V15.6683H77.0346C77.6523 15.6683 78.212 15.7592 78.7134 15.9409C79.2222 16.1226 79.6546 16.3842 80.0107 16.7258C80.3741 17.0601 80.6503 17.4635 80.8393 17.9359C81.0355 18.4083 81.1336 18.9352 81.1336 19.5166C81.1336 20.1053 81.0355 20.6395 80.8393 21.1192C80.6503 21.5916 80.3741 21.9986 80.0107 22.3402C79.6546 22.6818 79.2258 22.9471 78.7243 23.136C78.2229 23.3177 77.6632 23.4086 77.0455 23.4086H74.4727ZM75.3884 22.5691H77.0128C77.4997 22.5691 77.9394 22.5001 78.3319 22.362C78.7243 22.2166 79.0587 22.0131 79.3348 21.7515C79.611 21.4826 79.8218 21.1628 79.9671 20.7921C80.1198 20.4215 80.1961 20.0036 80.1961 19.5384C80.1961 19.0733 80.1198 18.6554 79.9671 18.2847C79.8218 17.9141 79.6074 17.5979 79.3239 17.3363C79.0478 17.0674 78.7134 16.8639 78.321 16.7258C77.9358 16.5804 77.4997 16.5077 77.0128 16.5077H75.3884V22.5691Z" fill="#233375"/>
<path d="M84.7444 23.5721C84.3447 23.5721 83.974 23.4994 83.6324 23.3541C83.2981 23.2014 83.0038 22.9943 82.7494 22.7327C82.5023 22.4637 82.3097 22.1476 82.1716 21.7842C82.0335 21.4208 81.9645 21.0247 81.9645 20.5959C81.9645 20.1671 82.0335 19.771 82.1716 19.4076C82.317 19.0442 82.5132 18.7317 82.7603 18.4701C83.0147 18.2012 83.3126 17.994 83.6542 17.8487C83.9958 17.696 84.3665 17.6197 84.7662 17.6197C85.1659 17.6197 85.533 17.696 85.8673 17.8487C86.2089 17.994 86.5032 18.2012 86.7503 18.4701C87.0047 18.7317 87.2009 19.0442 87.339 19.4076C87.4771 19.771 87.5462 20.1671 87.5462 20.5959C87.5462 21.0247 87.4735 21.4208 87.3281 21.7842C87.19 22.1476 86.9938 22.4637 86.7394 22.7327C86.4923 22.9943 86.198 23.2014 85.8564 23.3541C85.5148 23.4994 85.1441 23.5721 84.7444 23.5721ZM84.7553 22.7763C85.0315 22.7763 85.2822 22.7217 85.5075 22.6127C85.7401 22.5037 85.94 22.3547 86.1071 22.1658C86.2816 21.9695 86.416 21.7406 86.5105 21.479C86.605 21.21 86.6522 20.9157 86.6522 20.5959C86.6522 20.2761 86.605 19.9854 86.5105 19.7238C86.416 19.4549 86.2816 19.2259 86.1071 19.037C85.94 18.8407 85.7401 18.6881 85.5075 18.5791C85.2822 18.4701 85.0315 18.4156 84.7553 18.4156C84.4791 18.4156 84.2248 18.4701 83.9922 18.5791C83.7669 18.6881 83.567 18.8407 83.3926 19.037C83.2254 19.2259 83.0946 19.4549 83.0001 19.7238C82.9056 19.9854 82.8584 20.2761 82.8584 20.5959C82.8584 20.9157 82.9056 21.21 83.0001 21.479C83.0946 21.7406 83.2254 21.9695 83.3926 22.1658C83.567 22.3547 83.7669 22.5037 83.9922 22.6127C84.2248 22.7217 84.4791 22.7763 84.7553 22.7763Z" fill="#233375"/>
<path d="M89.7689 23.4086L87.872 17.7833H88.7878L90.1941 22.3402L91.644 17.7833H92.429L93.868 22.3402L95.2743 17.7833H96.1683L94.2713 23.4086H93.4319L92.0256 18.9061L90.6084 23.4086H89.7689Z" fill="#233375"/>
<path d="M96.9082 23.4086V17.7833H97.6931L97.7367 18.6772C97.9039 18.3574 98.1437 18.103 98.4563 17.9141C98.776 17.7178 99.1431 17.6197 99.5573 17.6197C99.9861 17.6197 100.36 17.7215 100.68 17.925C101 18.1285 101.243 18.4192 101.411 18.7971C101.585 19.1678 101.672 19.6075 101.672 20.1162V23.4086H100.8V20.1707C100.8 19.6111 100.677 19.1787 100.429 18.8734C100.19 18.5682 99.8444 18.4156 99.3938 18.4156C99.0813 18.4156 98.8015 18.4882 98.5544 18.6336C98.3145 18.7717 98.1256 18.9679 97.9875 19.2223C97.8494 19.4694 97.7804 19.7528 97.7804 20.0726V23.4086H96.9082Z" fill="#233375"/>
<path d="M102.94 23.4086V15.3195H103.812V23.4086H102.94Z" fill="#233375"/>
<path d="M107.613 23.5721C107.214 23.5721 106.843 23.4994 106.501 23.3541C106.167 23.2014 105.873 22.9943 105.618 22.7327C105.371 22.4637 105.179 22.1476 105.041 21.7842C104.902 21.4208 104.833 21.0247 104.833 20.5959C104.833 20.1671 104.902 19.771 105.041 19.4076C105.186 19.0442 105.382 18.7317 105.629 18.4701C105.884 18.2012 106.182 17.994 106.523 17.8487C106.865 17.696 107.235 17.6197 107.635 17.6197C108.035 17.6197 108.402 17.696 108.736 17.8487C109.078 17.994 109.372 18.2012 109.619 18.4701C109.874 18.7317 110.07 19.0442 110.208 19.4076C110.346 19.771 110.415 20.1671 110.415 20.5959C110.415 21.0247 110.342 21.4208 110.197 21.7842C110.059 22.1476 109.863 22.4637 109.608 22.7327C109.361 22.9943 109.067 23.2014 108.725 23.3541C108.384 23.4994 108.013 23.5721 107.613 23.5721ZM107.624 22.7763C107.9 22.7763 108.151 22.7217 108.377 22.6127C108.609 22.5037 108.809 22.3547 108.976 22.1658C109.151 21.9695 109.285 21.7406 109.379 21.479C109.474 21.21 109.521 20.9157 109.521 20.5959C109.521 20.2761 109.474 19.9854 109.379 19.7238C109.285 19.4549 109.151 19.2259 108.976 19.037C108.809 18.8407 108.609 18.6881 108.377 18.5791C108.151 18.4701 107.9 18.4156 107.624 18.4156C107.348 18.4156 107.094 18.4701 106.861 18.5791C106.636 18.6881 106.436 18.8407 106.262 19.037C106.094 19.2259 105.964 19.4549 105.869 19.7238C105.775 19.9854 105.727 20.2761 105.727 20.5959C105.727 20.9157 105.775 21.21 105.869 21.479C105.964 21.7406 106.094 21.9695 106.262 22.1658C106.436 22.3547 106.636 22.5037 106.861 22.6127C107.094 22.7217 107.348 22.7763 107.624 22.7763Z" fill="#233375"/>
<path d="M113.18 23.5721C112.787 23.5721 112.439 23.4994 112.133 23.3541C111.828 23.2014 111.588 22.9943 111.414 22.7327C111.247 22.471 111.163 22.1694 111.163 21.8278C111.163 21.4571 111.258 21.1374 111.447 20.8685C111.643 20.5995 111.915 20.3924 112.264 20.2471C112.613 20.0944 113.02 20.0181 113.485 20.0181C113.747 20.0181 114.012 20.0472 114.281 20.1053C114.55 20.1635 114.79 20.2398 115.001 20.3343V19.92C115.001 19.6147 114.939 19.3495 114.815 19.1242C114.699 18.8916 114.535 18.7135 114.325 18.59C114.114 18.4592 113.867 18.3938 113.583 18.3938C113.242 18.3938 112.944 18.4737 112.689 18.6336C112.442 18.7935 112.257 19.0188 112.133 19.3095L111.37 19.0479C111.472 18.7571 111.628 18.5064 111.839 18.2956C112.057 18.0849 112.315 17.9213 112.613 17.8051C112.918 17.6888 113.245 17.6306 113.594 17.6306C114.045 17.6306 114.437 17.7287 114.772 17.925C115.113 18.1139 115.375 18.3829 115.557 18.7317C115.745 19.0733 115.84 19.4767 115.84 19.9418V23.4086H115.077L115.022 22.5364C114.862 22.8489 114.619 23.0997 114.292 23.2886C113.972 23.4776 113.601 23.5721 113.18 23.5721ZM112.046 21.7951C112.046 22.0059 112.101 22.1912 112.21 22.3511C112.319 22.5037 112.471 22.6236 112.668 22.7108C112.864 22.7981 113.089 22.8417 113.343 22.8417C113.656 22.8417 113.936 22.7726 114.183 22.6345C114.437 22.4892 114.637 22.2966 114.782 22.0567C114.928 21.8096 115.001 21.5298 115.001 21.2173V21.0102C114.761 20.9157 114.517 20.843 114.27 20.7921C114.03 20.734 113.801 20.7049 113.583 20.7049C113.104 20.7049 112.726 20.803 112.45 20.9993C112.181 21.1955 112.046 21.4608 112.046 21.7951Z" fill="#233375"/>
<path d="M119.46 23.5721C119.089 23.5721 118.744 23.4994 118.424 23.3541C118.104 23.2014 117.825 22.9907 117.585 22.7217C117.345 22.4528 117.156 22.1403 117.018 21.7842C116.887 21.4208 116.822 21.0283 116.822 20.6068C116.822 20.1853 116.887 19.7928 117.018 19.4294C117.156 19.066 117.345 18.7499 117.585 18.481C117.832 18.2121 118.119 18.0013 118.446 17.8487C118.773 17.696 119.125 17.6197 119.503 17.6197C119.932 17.6197 120.317 17.7178 120.659 17.9141C121.008 18.1103 121.284 18.3865 121.487 18.7426V15.3195H122.36V23.4086H121.575L121.531 22.3402C121.328 22.7254 121.044 23.027 120.681 23.245C120.325 23.4631 119.918 23.5721 119.46 23.5721ZM119.612 22.7763C119.889 22.7763 120.139 22.7217 120.365 22.6127C120.597 22.5037 120.797 22.3547 120.964 22.1658C121.139 21.9695 121.273 21.7406 121.368 21.479C121.462 21.21 121.509 20.9157 121.509 20.5959C121.509 20.2761 121.462 19.9854 121.368 19.7238C121.273 19.4549 121.139 19.2259 120.964 19.037C120.797 18.8407 120.597 18.6881 120.365 18.5791C120.139 18.4701 119.889 18.4156 119.612 18.4156C119.336 18.4156 119.082 18.4701 118.849 18.5791C118.624 18.6881 118.424 18.8407 118.25 19.037C118.083 19.2259 117.952 19.4549 117.857 19.7238C117.763 19.9854 117.715 20.2761 117.715 20.5959C117.715 20.9157 117.763 21.21 117.857 21.479C117.952 21.7406 118.083 21.9695 118.25 22.1658C118.424 22.3547 118.624 22.5037 118.849 22.6127C119.082 22.7217 119.336 22.7763 119.612 22.7763Z" fill="#233375"/>
<path d="M128.332 23.5721C127.932 23.5721 127.561 23.4994 127.22 23.3541C126.886 23.2014 126.591 22.9943 126.337 22.7327C126.09 22.4637 125.897 22.1476 125.759 21.7842C125.621 21.4208 125.552 21.0247 125.552 20.5959C125.552 20.1671 125.621 19.771 125.759 19.4076C125.904 19.0442 126.101 18.7317 126.348 18.4701C126.602 18.2012 126.9 17.994 127.242 17.8487C127.583 17.696 127.954 17.6197 128.354 17.6197C128.753 17.6197 129.12 17.696 129.455 17.8487C129.796 17.994 130.091 18.2012 130.338 18.4701C130.592 18.7317 130.788 19.0442 130.926 19.4076C131.065 19.771 131.134 20.1671 131.134 20.5959C131.134 21.0247 131.061 21.4208 130.916 21.7842C130.777 22.1476 130.581 22.4637 130.327 22.7327C130.08 22.9943 129.785 23.2014 129.444 23.3541C129.102 23.4994 128.732 23.5721 128.332 23.5721ZM128.343 22.7763C128.619 22.7763 128.87 22.7217 129.095 22.6127C129.328 22.5037 129.527 22.3547 129.695 22.1658C129.869 21.9695 130.003 21.7406 130.098 21.479C130.192 21.21 130.24 20.9157 130.24 20.5959C130.24 20.2761 130.192 19.9854 130.098 19.7238C130.003 19.4549 129.869 19.2259 129.695 19.037C129.527 18.8407 129.328 18.6881 129.095 18.5791C128.87 18.4701 128.619 18.4156 128.343 18.4156C128.067 18.4156 127.812 18.4701 127.58 18.5791C127.354 18.6881 127.154 18.8407 126.98 19.037C126.813 19.2259 126.682 19.4549 126.588 19.7238C126.493 19.9854 126.446 20.2761 126.446 20.5959C126.446 20.9157 126.493 21.21 126.588 21.479C126.682 21.7406 126.813 21.9695 126.98 22.1658C127.154 22.3547 127.354 22.5037 127.58 22.6127C127.812 22.7217 128.067 22.7763 128.343 22.7763Z" fill="#233375"/>
<path d="M132.154 23.4086V17.7833H132.939L132.983 18.6772C133.15 18.3574 133.39 18.103 133.702 17.9141C134.022 17.7178 134.389 17.6197 134.803 17.6197C135.232 17.6197 135.606 17.7215 135.926 17.925C136.246 18.1285 136.489 18.4192 136.657 18.7971C136.831 19.1678 136.918 19.6075 136.918 20.1162V23.4086H136.046V20.1707C136.046 19.6111 135.922 19.1787 135.675 18.8734C135.436 18.5682 135.09 18.4156 134.64 18.4156C134.327 18.4156 134.047 18.4882 133.8 18.6336C133.56 18.7717 133.371 18.9679 133.233 19.2223C133.095 19.4694 133.026 19.7528 133.026 20.0726V23.4086H132.154Z" fill="#233375"/>
<path d="M142.456 23.5721C142.115 23.5721 141.82 23.503 141.573 23.365C141.326 23.2269 141.133 23.0234 140.995 22.7545C140.865 22.4855 140.799 22.1585 140.799 21.7733V18.5246H139.763V17.7833H140.799V15.8973H141.671V17.7833H143.437V18.5246H141.671V21.7297C141.671 22.064 141.74 22.3257 141.878 22.5146C142.024 22.6963 142.242 22.7872 142.532 22.7872C142.685 22.7872 142.838 22.7654 142.99 22.7217C143.15 22.6709 143.292 22.6055 143.416 22.5255L143.677 23.2014C143.525 23.3104 143.346 23.3977 143.143 23.4631C142.939 23.5357 142.711 23.5721 142.456 23.5721Z" fill="#233375"/>
<path d="M144.584 23.4086V15.3195H145.456V18.6009C145.624 18.3029 145.863 18.0667 146.176 17.8923C146.488 17.7106 146.841 17.6197 147.233 17.6197C147.662 17.6197 148.036 17.7215 148.356 17.925C148.676 18.1285 148.919 18.4192 149.087 18.7971C149.261 19.1678 149.348 19.6075 149.348 20.1162V23.4086H148.476V20.1707C148.476 19.6111 148.353 19.1787 148.105 18.8734C147.866 18.5682 147.52 18.4156 147.07 18.4156C146.757 18.4156 146.477 18.4882 146.23 18.6336C145.991 18.7717 145.802 18.9679 145.663 19.2223C145.525 19.4694 145.456 19.7528 145.456 20.0726V23.4086H144.584Z" fill="#233375"/>
<path d="M153.167 23.5721C152.752 23.5721 152.371 23.4994 152.022 23.3541C151.68 23.2087 151.382 23.0052 151.128 22.7436C150.874 22.4746 150.677 22.1621 150.539 21.806C150.401 21.4426 150.332 21.0429 150.332 20.6068C150.332 20.178 150.397 19.7855 150.528 19.4294C150.666 19.066 150.855 18.7499 151.095 18.481C151.342 18.2121 151.629 18.0049 151.956 17.8596C152.284 17.7069 152.64 17.6306 153.025 17.6306C153.395 17.6306 153.737 17.6997 154.05 17.8378C154.369 17.9759 154.646 18.1684 154.878 18.4156C155.111 18.6627 155.289 18.957 155.412 19.2986C155.543 19.6402 155.609 20.0108 155.609 20.4106V20.7703H151.237C151.266 21.1773 151.36 21.5335 151.52 21.8387C151.688 22.144 151.909 22.3802 152.185 22.5473C152.462 22.7145 152.781 22.7981 153.145 22.7981C153.501 22.7981 153.81 22.7254 154.071 22.58C154.34 22.4274 154.569 22.2057 154.758 21.915L155.5 22.253C155.354 22.5292 155.165 22.7654 154.933 22.9616C154.7 23.1578 154.431 23.3068 154.126 23.4086C153.828 23.5176 153.508 23.5721 153.167 23.5721ZM153.025 18.3719C152.727 18.3719 152.454 18.4446 152.207 18.59C151.967 18.7353 151.764 18.9388 151.597 19.2005C151.437 19.4549 151.331 19.7528 151.281 20.0944H154.693C154.664 19.7528 154.573 19.4549 154.42 19.2005C154.268 18.9388 154.071 18.7353 153.832 18.59C153.592 18.4446 153.323 18.3719 153.025 18.3719Z" fill="#233375"/>
<path d="M50.2869 31.0573C50.3063 29.6917 50.7059 28.3527 51.4485 27.1649C52.1911 25.9771 53.2526 24.9792 54.5342 24.2639C53.7201 23.2083 52.646 22.3396 51.3973 21.7268C50.1486 21.1139 48.7596 20.7739 47.3408 20.7336C44.3143 20.4452 41.3802 22.3776 39.8379 22.3776C38.2658 22.3776 35.8912 20.7622 33.3341 20.81C31.6802 20.8585 30.0683 21.2951 28.6555 22.0773C27.2427 22.8594 26.0771 23.9605 25.2724 25.2732C21.7867 30.7518 24.3868 38.8034 27.7258 43.2318C29.3964 45.4003 31.3488 47.8226 33.9035 47.7367C36.4035 47.6426 37.3372 46.2895 40.3548 46.2895C43.3445 46.2895 44.2204 47.7367 46.827 47.6821C49.5096 47.6425 51.1997 45.5039 52.8117 43.3149C54.012 41.7698 54.9356 40.0621 55.5484 38.2551C53.9899 37.6567 52.6599 36.6551 51.7243 35.3751C50.7886 34.0951 50.2887 32.5935 50.2869 31.0573Z" fill="#233375"/>
<path d="M45.3631 17.8207C46.8258 16.2268 47.5463 14.178 47.3719 12.1095C45.1373 12.3226 43.0731 13.2921 41.5907 14.8249C40.8659 15.5737 40.3108 16.4449 39.9571 17.3885C39.6034 18.3322 39.458 19.33 39.5294 20.3247C40.6471 20.3351 41.7528 20.1152 42.7633 19.6815C43.7738 19.2477 44.6627 18.6115 45.3631 17.8207Z" fill="#233375"/>
</svg>
