<svg width="187" height="61" viewBox="0 0 187 61" fill="none" xmlns="http://www.w3.org/2000/svg">
<path fill-rule="evenodd" clip-rule="evenodd" d="M178.599 1.10581H7.93409C4.22894 1.10581 1.22532 4.10943 1.22532 7.81458V52.7198C1.22532 56.425 4.22893 59.4286 7.93409 59.4286H178.599C182.304 59.4286 185.307 56.425 185.307 52.7198V7.81458C185.307 4.10943 182.304 1.10581 178.599 1.10581ZM7.93409 0.267212C3.76579 0.267212 0.386719 3.64629 0.386719 7.81458V52.7198C0.386719 56.8881 3.76579 60.2672 7.93409 60.2672H178.599C182.767 60.2672 186.146 56.8881 186.146 52.7198V7.81458C186.146 3.64628 182.767 0.267212 178.599 0.267212H7.93409Z" fill="#6E80A3"/>
<path d="M64.9951 44.1825C64.1498 44.1825 63.3515 44.0617 62.6001 43.8202C61.8621 43.5787 61.1846 43.2366 60.5673 42.7938C59.9636 42.3376 59.4403 41.8009 58.9975 41.1837C58.5681 40.5665 58.2327 39.8822 57.9912 39.1308C57.7497 38.366 57.6289 37.5475 57.6289 36.6754C57.6289 35.8032 57.7497 34.9848 57.9912 34.22C58.2327 33.4552 58.5748 32.7575 59.0176 32.1268C59.4604 31.4962 59.9904 30.9595 60.6076 30.5167C61.2248 30.0605 61.9024 29.7117 62.6404 29.4702C63.3917 29.2152 64.1901 29.0878 65.0354 29.0878C65.988 29.0878 66.8736 29.2421 67.6921 29.5507C68.5105 29.8593 69.2284 30.3021 69.8456 30.879C70.4762 31.456 70.9659 32.1537 71.3148 32.9721L68.4166 33.8577C68.0543 33.2137 67.5847 32.7172 67.0078 32.3684C66.4442 32.0195 65.7868 31.8451 65.0354 31.8451C64.4182 31.8451 63.8479 31.9658 63.3247 32.2073C62.8014 32.4354 62.3452 32.7709 61.9561 33.2137C61.567 33.643 61.2651 34.1462 61.0504 34.7231C60.8357 35.3001 60.7284 35.9307 60.7284 36.615C60.7284 37.3127 60.8357 37.9568 61.0504 38.5471C61.2651 39.1375 61.567 39.6474 61.9561 40.0767C62.3586 40.5061 62.8282 40.8415 63.3649 41.0831C63.9016 41.3112 64.492 41.4252 65.136 41.4252C65.8203 41.4252 66.4308 41.2977 66.9675 41.0428C67.5042 40.7879 67.9403 40.4323 68.2757 39.9761C68.6112 39.5199 68.8191 38.9832 68.8996 38.366H65.3373V35.8905H71.979V37.3999C71.979 38.3928 71.8045 39.3052 71.4557 40.1371C71.1202 40.969 70.6439 41.6868 70.0267 42.2906C69.4095 42.8944 68.6715 43.364 67.8128 43.6995C66.9541 44.0215 66.0149 44.1825 64.9951 44.1825Z" fill="#233375"/>
<path d="M78.7174 44.0819C77.9257 44.0819 77.1945 43.941 76.5236 43.6592C75.8527 43.3775 75.269 42.9883 74.7726 42.4919C74.2761 41.982 73.887 41.3849 73.6053 40.7007C73.3369 40.0164 73.2027 39.2717 73.2027 38.4666C73.2027 37.6616 73.3436 36.9236 73.6254 36.2527C73.9072 35.5684 74.2963 34.9714 74.7927 34.4615C75.3026 33.9516 75.893 33.5558 76.5638 33.274C77.2481 32.9923 77.9928 32.8514 78.7979 32.8514C79.5895 32.8514 80.3208 32.9923 80.9916 33.274C81.6625 33.5558 82.2462 33.9516 82.7426 34.4615C83.2391 34.9579 83.6215 35.5483 83.8898 36.2326C84.1716 36.9035 84.3125 37.6415 84.3125 38.4465C84.3125 39.2516 84.1716 39.9962 83.8898 40.6805C83.608 41.3648 83.2122 41.9619 82.7024 42.4718C82.2059 42.9816 81.6155 43.3775 80.9312 43.6592C80.2604 43.941 79.5224 44.0819 78.7174 44.0819ZM78.7576 41.546C79.2675 41.546 79.7237 41.4118 80.1262 41.1434C80.5287 40.8751 80.844 40.5128 81.0721 40.0566C81.3137 39.587 81.4344 39.057 81.4344 38.4666C81.4344 37.8763 81.3137 37.353 81.0721 36.8968C80.844 36.4272 80.5287 36.0582 80.1262 35.7898C79.7237 35.5215 79.2675 35.3873 78.7576 35.3873C78.2477 35.3873 77.7915 35.5215 77.389 35.7898C76.9865 36.0582 76.6645 36.4272 76.423 36.8968C76.1949 37.353 76.0808 37.8763 76.0808 38.4666C76.0808 39.057 76.1949 39.587 76.423 40.0566C76.6645 40.5128 76.9865 40.8751 77.389 41.1434C77.7915 41.4118 78.2477 41.546 78.7576 41.546Z" fill="#233375"/>
<path d="M90.9724 44.0819C90.1808 44.0819 89.4495 43.941 88.7786 43.6592C88.1077 43.3775 87.5241 42.9883 87.0276 42.4919C86.5312 41.982 86.1421 41.3849 85.8603 40.7007C85.592 40.0164 85.4578 39.2717 85.4578 38.4666C85.4578 37.6616 85.5987 36.9236 85.8804 36.2527C86.1622 35.5684 86.5513 34.9714 87.0478 34.4615C87.5576 33.9516 88.148 33.5558 88.8189 33.274C89.5032 32.9923 90.2478 32.8514 91.0529 32.8514C91.8445 32.8514 92.5758 32.9923 93.2467 33.274C93.9175 33.5558 94.5012 33.9516 94.9977 34.4615C95.4941 34.9579 95.8765 35.5483 96.1449 36.2326C96.4266 36.9035 96.5675 37.6415 96.5675 38.4465C96.5675 39.2516 96.4266 39.9962 96.1449 40.6805C95.8631 41.3648 95.4673 41.9619 94.9574 42.4718C94.461 42.9816 93.8706 43.3775 93.1863 43.6592C92.5154 43.941 91.7774 44.0819 90.9724 44.0819ZM91.0126 41.546C91.5225 41.546 91.9787 41.4118 92.3812 41.1434C92.7838 40.8751 93.0991 40.5128 93.3272 40.0566C93.5687 39.587 93.6894 39.057 93.6894 38.4666C93.6894 37.8763 93.5687 37.353 93.3272 36.8968C93.0991 36.4272 92.7838 36.0582 92.3812 35.7898C91.9787 35.5215 91.5225 35.3873 91.0126 35.3873C90.5028 35.3873 90.0466 35.5215 89.6441 35.7898C89.2415 36.0582 88.9195 36.4272 88.678 36.8968C88.4499 37.353 88.3358 37.8763 88.3358 38.4666C88.3358 39.057 88.4499 39.587 88.678 40.0566C88.9195 40.5128 89.2415 40.8751 89.6441 41.1434C90.0466 41.4118 90.5028 41.546 91.0126 41.546Z" fill="#233375"/>
<path d="M102.483 43.4781C101.812 43.4781 101.181 43.3439 100.591 43.0756C100.014 42.8072 99.5108 42.4382 99.0814 41.9686C98.6521 41.4856 98.3166 40.9288 98.0751 40.2981C97.8336 39.6541 97.7128 38.9631 97.7128 38.2251C97.7128 37.4603 97.8336 36.7559 98.0751 36.1119C98.33 35.4544 98.6789 34.8841 99.1217 34.4011C99.5779 33.9181 100.101 33.5424 100.692 33.274C101.295 32.9923 101.946 32.8514 102.644 32.8514C103.328 32.8514 103.945 32.9923 104.495 33.274C105.046 33.5424 105.502 33.9382 105.864 34.4615L105.924 33.1533H108.521V42.512C108.521 43.3305 108.386 44.0752 108.118 44.746C107.863 45.4169 107.494 45.9939 107.011 46.4769C106.528 46.9599 105.951 47.3289 105.28 47.5839C104.623 47.8522 103.892 47.9864 103.087 47.9864C102.295 47.9864 101.584 47.8589 100.953 47.604C100.323 47.3625 99.7724 47.0203 99.3028 46.5775C98.8332 46.1348 98.4642 45.6182 98.1959 45.0278L100.893 44.3636C101.134 44.7528 101.443 45.0546 101.819 45.2693C102.208 45.4974 102.644 45.6115 103.127 45.6115C103.65 45.6115 104.1 45.4907 104.475 45.2492C104.864 45.0211 105.166 44.6924 105.381 44.263C105.596 43.8471 105.703 43.3573 105.703 42.7938V41.9284C105.341 42.4114 104.878 42.7938 104.314 43.0756C103.764 43.3439 103.154 43.4781 102.483 43.4781ZM103.167 40.9824C103.664 40.9824 104.1 40.8617 104.475 40.6201C104.864 40.3652 105.173 40.0298 105.401 39.6138C105.629 39.1845 105.743 38.7014 105.743 38.1647C105.743 37.628 105.629 37.1517 105.401 36.7358C105.173 36.3064 104.864 35.971 104.475 35.7295C104.1 35.4745 103.664 35.3471 103.167 35.3471C102.671 35.3471 102.228 35.4745 101.839 35.7295C101.463 35.971 101.161 36.3064 100.933 36.7358C100.705 37.1517 100.591 37.628 100.591 38.1647C100.591 38.7014 100.705 39.1845 100.933 39.6138C101.161 40.0298 101.463 40.3652 101.839 40.6201C102.228 40.8617 102.671 40.9824 103.167 40.9824Z" fill="#233375"/>
<path d="M110.37 43.78V28.7657H113.188V43.78H110.37Z" fill="#233375"/>
<path d="M120.07 44.0819C119.279 44.0819 118.547 43.9477 117.877 43.6793C117.219 43.3976 116.649 43.0085 116.166 42.512C115.683 42.0022 115.307 41.4051 115.039 40.7208C114.77 40.0231 114.636 39.265 114.636 38.4465C114.636 37.6549 114.77 36.9169 115.039 36.2326C115.307 35.5483 115.676 34.9579 116.146 34.4615C116.629 33.9516 117.192 33.5558 117.836 33.274C118.48 32.9923 119.178 32.8514 119.929 32.8514C120.708 32.8514 121.412 32.9856 122.043 33.2539C122.687 33.5223 123.237 33.9047 123.693 34.4011C124.149 34.8976 124.498 35.4879 124.74 36.1722C124.995 36.8565 125.122 37.6213 125.122 38.4666V39.1711H117.494C117.615 39.9627 117.903 40.5866 118.36 41.0428C118.816 41.4856 119.393 41.707 120.09 41.707C120.573 41.707 121.01 41.5929 121.399 41.3648C121.801 41.1367 122.13 40.808 122.385 40.3786L124.901 41.1837C124.659 41.7875 124.297 42.3041 123.814 42.7334C123.331 43.1628 122.767 43.4982 122.123 43.7397C121.479 43.9678 120.795 44.0819 120.07 44.0819ZM119.929 35.025C119.312 35.025 118.789 35.2263 118.36 35.6288C117.944 36.0313 117.669 36.5815 117.534 37.2792H122.224C122.117 36.5815 121.855 36.0313 121.439 35.6288C121.036 35.2263 120.533 35.025 119.929 35.025Z" fill="#233375"/>
<path d="M130.453 43.78V29.4903H135.042C136.209 29.4903 137.209 29.6848 138.041 30.074C138.886 30.4496 139.53 30.9998 139.973 31.7243C140.429 32.4354 140.657 33.3009 140.657 34.3206C140.657 35.0452 140.523 35.7026 140.255 36.293C139.986 36.8699 139.604 37.3731 139.107 37.8025C138.611 38.2184 138.014 38.5404 137.316 38.7685C136.632 38.9966 135.867 39.1107 135.022 39.1107C134.525 39.1107 133.989 39.0637 133.412 38.9698V43.78H130.453ZM133.412 32.0262V36.454C133.948 36.5345 134.445 36.5748 134.901 36.5748C135.76 36.5748 136.424 36.3802 136.893 35.9911C137.376 35.602 137.618 35.0384 137.618 34.3005C137.618 33.5759 137.39 33.0191 136.934 32.63C136.477 32.2275 135.827 32.0262 134.981 32.0262H133.412Z" fill="#233375"/>
<path d="M141.918 43.78V28.7657H144.735V43.78H141.918Z" fill="#233375"/>
<path d="M149.867 44.0819C149.316 44.0819 148.813 44.0014 148.357 43.8404C147.901 43.6793 147.498 43.4513 147.149 43.1561C146.814 42.8475 146.552 42.4919 146.365 42.0894C146.177 41.6868 146.083 41.2441 146.083 40.761C146.083 40.0902 146.264 39.4998 146.626 38.9899C146.988 38.48 147.498 38.0842 148.156 37.8025C148.813 37.5073 149.578 37.3597 150.45 37.3597C150.893 37.3597 151.309 37.3999 151.698 37.4804C152.101 37.5609 152.49 37.675 152.865 37.8226V37.1987C152.865 36.5949 152.691 36.1051 152.342 35.7295C152.007 35.3538 151.544 35.1659 150.953 35.1659C150.511 35.1659 150.108 35.28 149.746 35.5081C149.384 35.7227 149.129 36.0313 148.981 36.4339L146.465 35.9307C146.613 35.3135 146.901 34.7768 147.331 34.3206C147.773 33.851 148.31 33.4887 148.941 33.2338C149.571 32.9789 150.256 32.8514 150.994 32.8514C151.678 32.8514 152.302 32.9587 152.865 33.1734C153.429 33.3881 153.912 33.6967 154.314 34.0992C154.73 34.5017 155.046 34.9781 155.26 35.5282C155.489 36.0649 155.603 36.6687 155.603 37.3396V43.78H153.087L153.006 42.5321C152.724 42.9883 152.315 43.364 151.779 43.6592C151.242 43.941 150.605 44.0819 149.867 44.0819ZM148.86 40.6201C148.86 40.9958 149.015 41.3044 149.323 41.546C149.632 41.7875 150.041 41.9082 150.551 41.9082C150.994 41.9082 151.389 41.8143 151.738 41.6265C152.087 41.4386 152.362 41.1837 152.563 40.8617C152.765 40.5262 152.865 40.1572 152.865 39.7547V39.6541C152.57 39.5333 152.255 39.4394 151.919 39.3723C151.584 39.2918 151.249 39.2516 150.913 39.2516C150.282 39.2516 149.779 39.379 149.404 39.634C149.041 39.8755 148.86 40.2042 148.86 40.6201Z" fill="#233375"/>
<path d="M158.863 47.8857C158.501 47.8857 158.158 47.8455 157.836 47.765C157.514 47.6979 157.212 47.5839 156.931 47.4228L157.474 45.2089C157.622 45.276 157.796 45.3297 157.997 45.37C158.199 45.4236 158.387 45.4505 158.561 45.4505C158.95 45.4505 159.285 45.3431 159.567 45.1284C159.862 44.9272 160.104 44.5984 160.292 44.1423L160.473 43.6793L156.186 33.1533H159.265L161.781 40.6805L164.055 33.1533H167.034L162.667 44.7863C162.264 45.8597 161.748 46.6446 161.117 47.1411C160.5 47.6375 159.748 47.8857 158.863 47.8857Z" fill="#233375"/>
<path d="M61.5271 22.2111C60.9245 22.2111 60.3688 22.1055 59.86 21.8942C59.3591 21.675 58.9247 21.3698 58.5568 20.9784C58.189 20.5871 57.9033 20.1253 57.6998 19.593C57.4963 19.0608 57.3945 18.4816 57.3945 17.8555C57.3945 17.3467 57.4611 16.8654 57.5941 16.4114C57.7272 15.9575 57.9189 15.5465 58.1694 15.1787C58.4199 14.8108 58.7134 14.4977 59.0499 14.2394C59.3943 13.9733 59.7739 13.7698 60.1887 13.629C60.6036 13.4802 61.0458 13.4059 61.5154 13.4059C62.0163 13.4059 62.4859 13.4881 62.9242 13.6524C63.3625 13.8168 63.7461 14.0516 64.0748 14.3569C64.4113 14.6543 64.6814 15.0104 64.8849 15.4252L63.9691 15.8009C63.7187 15.3313 63.3821 14.9674 62.9595 14.7091C62.5446 14.4429 62.0672 14.3099 61.5271 14.3099C61.081 14.3099 60.6662 14.3999 60.2827 14.5799C59.907 14.7521 59.5782 14.9987 59.2965 15.3196C59.0147 15.6326 58.7955 16.0044 58.639 16.4349C58.4825 16.8654 58.4042 17.335 58.4042 17.8437C58.4042 18.3368 58.4786 18.7947 58.6273 19.2174C58.7838 19.64 59.003 20.0079 59.2847 20.321C59.5665 20.634 59.8991 20.8767 60.2827 21.0489C60.6662 21.221 61.0888 21.3071 61.5506 21.3071C61.9498 21.3071 62.3137 21.2406 62.6425 21.1076C62.979 20.9745 63.2725 20.7867 63.523 20.544C63.7735 20.3014 63.9691 20.0118 64.11 19.6752C64.2509 19.3387 64.3253 18.963 64.3331 18.5482H61.7854V17.6794H65.3427V18.3486C65.3427 18.9199 65.2488 19.4404 65.061 19.91C64.8731 20.3797 64.607 20.7867 64.2626 21.131C63.9261 21.4754 63.523 21.7415 63.0534 21.9294C62.5916 22.1172 62.0828 22.2111 61.5271 22.2111Z" fill="#233375"/>
<path d="M69.3134 22.1524C68.8672 22.1524 68.4563 22.0742 68.0806 21.9176C67.7128 21.7611 67.3919 21.5419 67.1179 21.2602C66.844 20.9706 66.6327 20.634 66.4839 20.2505C66.3352 19.8592 66.2609 19.4287 66.2609 18.9591C66.2609 18.4973 66.3313 18.0746 66.4722 17.6911C66.6209 17.2998 66.8244 16.9593 67.0827 16.6697C67.3488 16.3801 67.658 16.157 68.0102 16.0005C68.3624 15.8361 68.7459 15.754 69.1607 15.754C69.5599 15.754 69.9278 15.8283 70.2643 15.977C70.6087 16.1257 70.9061 16.3331 71.1566 16.5993C71.4071 16.8654 71.5988 17.1824 71.7319 17.5502C71.8728 17.9181 71.9432 18.3173 71.9432 18.7477V19.1352H67.2353C67.2666 19.5735 67.3684 19.957 67.5406 20.2857C67.7206 20.6145 67.9593 20.8688 68.2567 21.0489C68.5542 21.2289 68.8985 21.3189 69.2899 21.3189C69.6734 21.3189 70.0061 21.2406 70.2878 21.0841C70.5774 20.9197 70.824 20.681 71.0275 20.3679L71.8258 20.7319C71.6693 21.0293 71.4658 21.2837 71.2153 21.495C70.9648 21.7063 70.6753 21.8668 70.3465 21.9763C70.0256 22.0937 69.6812 22.1524 69.3134 22.1524ZM69.1607 16.5523C68.8398 16.5523 68.5463 16.6306 68.2802 16.7871C68.0219 16.9436 67.8028 17.1628 67.6228 17.4446C67.4506 17.7185 67.3371 18.0394 67.2823 18.4073H70.957C70.9257 18.0394 70.8279 17.7185 70.6635 17.4446C70.4991 17.1628 70.2878 16.9436 70.0295 16.7871C69.7712 16.6306 69.4817 16.5523 69.1607 16.5523Z" fill="#233375"/>
<path d="M75.2929 22.1524C74.925 22.1524 74.608 22.0781 74.3419 21.9294C74.0758 21.7807 73.8684 21.5615 73.7197 21.2719C73.5788 20.9823 73.5083 20.6301 73.5083 20.2153V16.7167H72.393V15.9183H73.5083V13.8872H74.4476V15.9183H76.3495V16.7167H74.4476V20.1683C74.4476 20.5284 74.5219 20.8101 74.6706 21.0136C74.8272 21.2093 75.062 21.3071 75.3751 21.3071C75.5394 21.3071 75.7038 21.2837 75.8682 21.2367C76.0403 21.1819 76.193 21.1115 76.326 21.0254L76.6078 21.7533C76.4434 21.8707 76.2517 21.9646 76.0325 22.035C75.8134 22.1133 75.5668 22.1524 75.2929 22.1524Z" fill="#233375"/>
<path d="M81.0334 14.1455C81.0334 14.2629 81.0021 14.3725 80.9394 14.4743C80.8846 14.5682 80.8064 14.6464 80.7046 14.7091C80.6107 14.7639 80.505 14.7912 80.3876 14.7912C80.2702 14.7912 80.1607 14.7639 80.0589 14.7091C79.965 14.6464 79.8867 14.5682 79.8241 14.4743C79.7693 14.3725 79.7419 14.2629 79.7419 14.1455C79.7419 14.0281 79.7693 13.9225 79.8241 13.8285C79.8867 13.7268 79.965 13.6485 80.0589 13.5937C80.1607 13.5311 80.2702 13.4998 80.3876 13.4998C80.505 13.4998 80.6107 13.5311 80.7046 13.5937C80.8064 13.6485 80.8846 13.7268 80.9394 13.8285C81.0021 13.9225 81.0334 14.0281 81.0334 14.1455ZM79.918 21.9763V15.9183H80.8573V21.9763H79.918Z" fill="#233375"/>
<path d="M84.5288 22.1524C84.1609 22.1524 83.8439 22.0781 83.5778 21.9294C83.3117 21.7807 83.1043 21.5615 82.9556 21.2719C82.8147 20.9823 82.7442 20.6301 82.7442 20.2153V16.7167H81.6289V15.9183H82.7442V13.8872H83.6835V15.9183H85.5854V16.7167H83.6835V20.1683C83.6835 20.5284 83.7578 20.8101 83.9065 21.0136C84.0631 21.2093 84.2979 21.3071 84.611 21.3071C84.7753 21.3071 84.9397 21.2837 85.1041 21.2367C85.2762 21.1819 85.4289 21.1115 85.5619 21.0254L85.8437 21.7533C85.6793 21.8707 85.4876 21.9646 85.2684 22.035C85.0493 22.1133 84.8027 22.1524 84.5288 22.1524Z" fill="#233375"/>
<path d="M91.8425 22.1524C91.412 22.1524 91.0128 22.0742 90.6449 21.9176C90.2849 21.7533 89.9679 21.5302 89.694 21.2484C89.4279 20.9588 89.2205 20.6184 89.0717 20.227C88.923 19.8357 88.8487 19.4091 88.8487 18.9473C88.8487 18.4855 88.923 18.059 89.0717 17.6676C89.2283 17.2763 89.4396 16.9397 89.7057 16.658C89.9797 16.3684 90.3006 16.1453 90.6684 15.9888C91.0363 15.8244 91.4355 15.7422 91.8659 15.7422C92.2964 15.7422 92.6917 15.8244 93.0517 15.9888C93.4196 16.1453 93.7366 16.3684 94.0027 16.658C94.2766 16.9397 94.488 17.2763 94.6367 17.6676C94.7854 18.059 94.8597 18.4855 94.8597 18.9473C94.8597 19.4091 94.7815 19.8357 94.6249 20.227C94.4762 20.6184 94.2649 20.9588 93.9909 21.2484C93.7248 21.5302 93.4078 21.7533 93.04 21.9176C92.6721 22.0742 92.2729 22.1524 91.8425 22.1524ZM91.8542 21.2954C92.1516 21.2954 92.4217 21.2367 92.6643 21.1193C92.9147 21.0019 93.13 20.8414 93.31 20.6379C93.4979 20.4266 93.6426 20.1801 93.7444 19.8983C93.8461 19.6087 93.897 19.2917 93.897 18.9473C93.897 18.6029 93.8461 18.2899 93.7444 18.0081C93.6426 17.7185 93.4979 17.472 93.31 17.2685C93.13 17.0571 92.9147 16.8928 92.6643 16.7754C92.4217 16.658 92.1516 16.5993 91.8542 16.5993C91.5568 16.5993 91.2828 16.658 91.0324 16.7754C90.7897 16.8928 90.5745 17.0571 90.3867 17.2685C90.2066 17.472 90.0658 17.7185 89.964 18.0081C89.8623 18.2899 89.8114 18.6029 89.8114 18.9473C89.8114 19.2917 89.8623 19.6087 89.964 19.8983C90.0658 20.1801 90.2066 20.4266 90.3867 20.6379C90.5745 20.8414 90.7897 21.0019 91.0324 21.1193C91.2828 21.2367 91.5568 21.2954 91.8542 21.2954Z" fill="#233375"/>
<path d="M95.9587 21.9763V15.9183H96.804L96.851 16.881C97.031 16.5366 97.2893 16.2627 97.6259 16.0592C97.9702 15.8479 98.3655 15.7422 98.8116 15.7422C99.2734 15.7422 99.6765 15.8518 100.021 16.0709C100.365 16.2901 100.627 16.6032 100.808 17.0102C100.995 17.4093 101.089 17.8829 101.089 18.4308V21.9763H100.15V18.4895C100.15 17.8868 100.017 17.4211 99.7509 17.0924C99.4926 16.7636 99.1208 16.5993 98.6355 16.5993C98.299 16.5993 97.9976 16.6775 97.7315 16.8341C97.4732 16.9828 97.2697 17.1941 97.121 17.468C96.9723 17.7342 96.898 18.0394 96.898 18.3838V21.9763H95.9587Z" fill="#233375"/>
<path d="M27.6931 16.401C26.9531 15.9817 26.0713 15.9442 25.3022 16.2933L38.1974 28.459L42.4138 24.4712L27.6931 16.401ZM24.1174 17.4192C23.9547 17.7435 23.8672 18.1042 23.8672 18.4754V40.7294C23.8672 41.1022 23.9553 41.4576 24.1196 41.775L37.0098 29.5823L24.1174 17.4192ZM38.1992 30.7041L25.3247 42.882C25.6663 43.0309 26.0298 43.0959 26.3928 43.0959C26.841 43.0959 27.2881 42.995 27.6931 42.7658L42.4166 34.6834L38.1992 30.7041ZM48.0203 27.5449C48.0152 27.5417 48.0096 27.5385 48.0046 27.5359L43.9173 25.2951L39.3862 29.5808L43.9201 33.858C43.9201 33.858 48.0152 31.6103 48.0203 31.6077C48.7804 31.173 49.2342 30.4136 49.2342 29.576C49.2342 28.7384 48.7804 27.979 48.0203 27.5449Z" fill="#233375"/>
</svg>
